<svg width="49" height="54" viewBox="0 0 49 54" fill="none" xmlns="http://www.w3.org/2000/svg">
<g id="Hand 1" clip-path="url(#clip0_2011_3251)">
<path id="Vector" d="M4.52784 39.5115C7.01199 51.1023 18.3286 54 23.6764 54C23.6763 53.5004 21.089 50.5028 20.5715 49.5036C20.3863 49.1461 19.1914 47.6717 18.5013 47.0056L13.8436 42.5092C13.4296 42.1095 13.6711 41.3434 13.8436 41.0103C14.0161 40.8438 14.5681 40.6107 15.3962 41.0103C16.2242 41.41 18.5013 43.5084 19.5364 44.5076C20.0539 44.6741 21.089 44.8073 21.089 44.008C21.089 43.2086 17.9838 39.6781 16.4312 38.0127C15.5687 37.0135 14.1541 34.8153 15.3962 34.0159C16.6382 33.2165 17.9838 35.0151 18.5013 36.0143L22.1241 40.0111C22.4691 40.5107 23.2626 41.41 23.6766 41.0103C24.0907 40.6107 22.4691 38.5123 21.6065 37.5131L19.5364 34.0159C19.0189 33.1832 18.1908 31.3181 19.0189 30.5187C19.8469 29.7193 20.744 30.5187 21.089 31.0183L22.6416 33.5163L25.2292 37.5131C25.5743 38.1793 26.3678 39.5115 26.7818 39.5115C27.1959 39.5115 25.5743 35.5147 24.7117 33.5163C24.1942 32.3506 23.4696 29.9192 24.7117 29.5195C25.9538 29.1198 27.2994 31.6844 27.8169 33.0167L28.8519 35.5147C29.542 36.847 30.7369 39.6537 30.9221 40.0111C31.4396 41.0103 32.6472 41.843 33.5097 42.5092C32.9922 42.0096 32.7998 37.6988 34.0272 36.5139C35.0623 35.5147 36.6149 36.0143 36.6149 36.5139V39.5115C36.6149 40.5107 37.1324 42.5092 37.1324 43.0088C37.1324 43.5084 37.65 44.008 38.1675 43.5084C38.685 43.0088 40.2376 35.0151 40.2376 33.5163C40.2376 32.0175 45.9304 24.5235 46.448 23.5243C46.9655 22.525 50.0707 19.0278 47.483 17.529C45.4129 16.33 40.4101 23.3577 38.1675 27.0215C37.4774 28.1872 35.8904 30.119 35.0623 28.5203C34.0272 26.5218 39.7201 14.0318 40.2376 12.0334C40.7551 10.035 41.7902 5.53856 39.2025 5.03894C37.1324 4.63925 33.1647 15.1975 31.4396 20.5266C30.9221 22.192 29.68 25.3228 28.8519 24.5235C27.8169 23.5243 31.4396 10.035 31.9571 6.53777C32.4747 3.04055 31.9571 0.542521 29.887 0.042918C27.8169 -0.456684 26.7818 3.54014 26.2643 5.03894C25.8503 6.23799 23.6766 16.5298 22.6416 21.5258C22.6416 22.192 22.4346 23.3244 21.6065 22.525C20.5715 21.5258 21.6065 11.0342 21.6065 8.03656C21.6065 5.03894 22.1241 3.04055 19.0189 2.04134C15.9137 1.04214 15.3962 12.0334 15.3962 13.0326C15.3962 14.0318 14.8786 20.5266 14.8786 23.5243C14.8786 25.9223 12.1185 30.5187 10.7384 32.5171C10.7384 25.5227 7.11569 22.0254 6.59816 21.5258C6.08063 21.0262 4.01031 19.5274 1.42267 20.5266C-1.16499 21.5258 2.45772 27.5211 2.97525 28.5203C3.49278 29.5195 4.01031 31.0183 4.01031 33.5163V36.5139C4.01031 37.3133 4.35533 38.8454 4.52784 39.5115Z" fill="#304F6C"/>
</g>
<defs>
<clipPath id="clip0_2011_3251">
<rect width="48" height="54" fill="white" transform="translate(0.5)"/>
</clipPath>
</defs>
</svg>
